<?xml version="1.0" encoding="UTF-8"?><svg id="Layer_1" xmlns="http://www.w3.org/2000/svg" viewBox="0 0 266.55 266.56"><path d="M.22,97.92c.61,1.9,2.37,3.19,4.37,3.19h27.58v128.69c0,7.61,6.18,13.78,13.79,13.79h22.98v9.19c0,7.61,6.18,13.78,13.79,13.79h101.11c7.61,0,13.78-6.18,13.79-13.79v-9.19h22.98c7.61,0,13.78-6.18,13.79-13.79V101.11h27.58c2.54,0,4.59-2.06,4.59-4.6,0-1.48-.72-2.87-1.92-3.74l-30.25-21.61V22.98c0-2.54-2.06-4.6-4.6-4.6h-32.17c-2.54,0-4.6,2.06-4.6,4.6v18.65L135.94.86c-1.6-1.14-3.74-1.14-5.34,0L1.92,92.78c-1.62,1.16-2.31,3.24-1.7,5.14ZM188.42,252.78c0,2.54-2.06,4.6-4.6,4.6h-101.11c-2.54,0-4.6-2.06-4.6-4.6v-101.11c0-2.54,2.06-4.6,4.6-4.6h101.11c2.54,0,4.6,2.06,4.6,4.6v101.11ZM133.27,10.25l61.67,44.05c2.07,1.47,4.94,1,6.41-1.07.56-.78.85-1.71.86-2.67v-22.98h22.98v45.96c0,1.48.72,2.88,1.93,3.74l20.5,14.64h-17.83c-2.54,0-4.6,2.06-4.6,4.6v133.28c0,2.54-2.06,4.6-4.6,4.6h-22.98v-82.73c0-7.61-6.18-13.78-13.79-13.79h-101.11c-7.61,0-13.78,6.18-13.79,13.79v82.73h-22.98c-2.54,0-4.6-2.06-4.6-4.6V96.52c0-2.54-2.06-4.6-4.6-4.6h-17.83L133.27,10.25Z" style="fill:#010101;"/><path d="M162.82,179.86c-2.19,1.27-2.95,4.08-1.68,6.28,2.82,4.89,4.3,10.44,4.3,16.09v36.77c0,2.54,2.06,4.6,4.6,4.6s4.6-2.06,4.6-4.6v-36.77c0-7.26-1.91-14.39-5.53-20.68-1.27-2.2-4.08-2.95-6.28-1.68,0,0,0,0,0,0Z" style="fill:#010101;"/><path d="M148.81,163.89c-4.93-2.02-10.21-3.05-15.53-3.03-22.83.03-41.34,18.53-41.36,41.36v36.77c0,2.54,2.06,4.6,4.6,4.6s4.6-2.06,4.6-4.6v-36.77c.02-17.76,14.41-32.15,32.17-32.17,4.13-.01,8.22.78,12.04,2.34,2.35.96,5.03-.16,6-2.5.96-2.35-.16-5.03-2.5-6h0Z" style="fill:#010101;"/><path d="M133.27,183.84c-10.15.01-18.37,8.24-18.38,18.38v9.19c0,2.54,2.06,4.6,4.6,4.6s4.6-2.06,4.6-4.6v-9.19c0-5.08,4.12-9.19,9.19-9.19s9.19,4.12,9.19,9.19v36.77c0,2.54,2.06,4.6,4.6,4.6s4.6-2.06,4.6-4.6v-36.77c-.01-10.15-8.24-18.37-18.38-18.38Z" style="fill:#010101;"/><path d="M119.48,225.2c-2.54,0-4.6,2.06-4.6,4.6v11.49c0,2.54,2.06,4.6,4.6,4.6s4.6-2.06,4.6-4.6v-11.49c0-2.54-2.06-4.6-4.6-4.6Z" style="fill:#010101;"/></svg>