<?xml version="1.0" encoding="UTF-8"?><svg id="Layer_1" xmlns="http://www.w3.org/2000/svg" viewBox="0 0 266.56 266.58"><path d="M172.39,100.31c1.97,1.6,4.87,1.3,6.47-.67,1.6-1.97,1.3-4.87-.67-6.47h0c-26.21-21.13-63.6-21.13-89.8,0-1.97,1.6-2.27,4.5-.67,6.47,1.6,1.97,4.5,2.27,6.47.67,22.82-18.4,55.39-18.4,78.21,0Z" style="fill:#010101;"/><path d="M107.15,113.54c15.51-11.54,36.76-11.54,52.26,0,2.03,1.52,4.91,1.11,6.43-.92,1.52-2.03,1.11-4.91-.92-6.43h0c-18.78-13.98-44.51-13.98-63.29,0-2.03,1.52-2.44,4.4-.92,6.43,1.52,2.03,4.4,2.44,6.43.92h0Z" style="fill:#010101;"/><path d="M151.38,119.16c-11.11-6.78-25.08-6.78-36.19,0-2.22,1.24-3.01,4.04-1.77,6.25,1.24,2.22,4.04,3.01,6.25,1.77.12-.06.23-.13.34-.21,8.15-4.97,18.39-4.97,26.53,0,2.1,1.43,4.96.88,6.38-1.22,1.43-2.1.88-4.96-1.22-6.38-.11-.07-.22-.14-.34-.21h0Z" style="fill:#010101;"/><path d="M130.04,135.5c-1.8,1.79-1.81,4.7-.02,6.5,1.79,1.8,4.7,1.81,6.5.02,1.8-1.79,1.81-4.7.02-6.5,0,0-.01-.01-.02-.02-1.79-1.78-4.69-1.78-6.48,0h0Z" style="fill:#010101;"/><path d="M119.49,266.58h27.58c10.15-.01,18.37-8.24,18.38-18.38v-7.08c5.68-3.28,9.18-9.34,9.19-15.9v-10.44c.14-26.32,9.37-51.77,26.14-72.05,30.59-37.28,25.17-92.3-12.11-122.9-37.28-30.59-92.3-25.17-122.9,12.11-26.29,32.03-26.44,78.12-.37,110.33,16.86,20.44,26.21,46.03,26.51,72.53v10.43c0,6.56,3.51,12.62,9.19,15.9v7.08c.01,10.15,8.24,18.37,18.38,18.38h0ZM156.26,248.2c0,5.08-4.12,9.19-9.19,9.19h-27.58c-5.08,0-9.19-4.12-9.19-9.19v-4.6h45.96v4.6ZM165.45,225.22c0,5.08-4.12,9.19-9.19,9.19h-45.96c-5.08,0-9.19-4.12-9.19-9.19v-4.6h64.34v4.6ZM72.55,136.49c-27.15-33.54-21.96-82.74,11.58-109.88C117.67-.54,166.87,4.65,194.01,38.19c23.32,28.81,23.18,70.05-.33,98.71-17.38,21.04-27.29,47.25-28.18,74.53h-64.44c-1.07-27.42-11.08-53.74-28.51-74.94h0Z" style="fill:#010101;"/><path d="M229.8,87.34c0,2.54,2.06,4.6,4.6,4.6h27.58c2.54,0,4.6-2.06,4.6-4.6s-2.06-4.6-4.6-4.6h-27.58c-2.54,0-4.6,2.06-4.6,4.6Z" style="fill:#010101;"/><path d="M218.55,141.87l23.88,13.79c2.21,1.25,5.01.48,6.27-1.72,1.24-2.19.5-4.96-1.67-6.24l-23.88-13.79c-2.21-1.25-5.01-.48-6.27,1.72-1.24,2.19-.5,4.96,1.67,6.24Z" style="fill:#010101;"/><path d="M223.14,40.76l23.88-13.79c2.19-1.28,2.92-4.1,1.64-6.29-1.27-2.17-4.05-2.91-6.24-1.67l-23.88,13.79c-2.19,1.28-2.92,4.1-1.64,6.29,1.27,2.17,4.05,2.91,6.24,1.67Z" style="fill:#010101;"/><path d="M4.6,91.93h27.58c2.54,0,4.6-2.06,4.6-4.6s-2.06-4.6-4.6-4.6H4.6c-2.54,0-4.6,2.06-4.6,4.6s2.06,4.6,4.6,4.6Z" style="fill:#010101;"/><path d="M17.86,153.98c1.27,2.2,4.08,2.95,6.28,1.68l23.88-13.79c2.19-1.28,2.92-4.1,1.64-6.29-1.27-2.17-4.05-2.91-6.24-1.67l-23.88,13.79c-2.2,1.27-2.95,4.08-1.68,6.28h0Z" style="fill:#010101;"/><path d="M49.7,39.08c1.27-2.2.52-5.01-1.68-6.28l-23.88-13.79c-2.21-1.25-5.01-.48-6.27,1.72-1.24,2.19-.5,4.96,1.67,6.24l23.88,13.79c2.2,1.27,5.01.52,6.28-1.68Z" style="fill:#010101;"/></svg>