<?xml version="1.0" encoding="UTF-8"?><svg id="Layer_1" xmlns="http://www.w3.org/2000/svg" viewBox="0 0 266.65 266.65"><path d="M207.14,262.44c3.13-29.15,26.15-52.18,55.3-55.3,2.53-.21,4.41-2.44,4.19-4.97-.21-2.53-2.44-4.41-4.97-4.19-.06,0-.12.01-.17.02-33.47,3.59-59.91,30.03-63.5,63.5-.31,2.52,1.48,4.81,4,5.12,2.52.31,4.81-1.48,5.12-4,0-.06.01-.12.02-.17h0Z" style="fill:#010101;"/><path d="M262.62,225.66c2.51-.35,4.27-2.67,3.92-5.18-.35-2.51-2.67-4.27-5.18-3.92-.01,0-.03,0-.04,0-23.17,3.4-41.36,21.59-44.76,44.76-.37,2.51,1.37,4.85,3.88,5.22,2.51.37,4.85-1.37,5.22-3.88,0-.01,0-.03,0-.04,2.8-19.13,17.83-34.15,36.96-36.96h0Z" style="fill:#010101;"/><path d="M238.74,266.44c2.47.58,4.95-.94,5.53-3.41,2.24-9.28,9.49-16.52,18.76-18.76,2.48-.56,4.03-3.01,3.48-5.49-.56-2.48-3.01-4.03-5.49-3.48-.04,0-.07.02-.11.03-12.65,3.06-22.54,12.93-25.6,25.59-.58,2.47.95,4.95,3.42,5.53,0,0,0,0,0,0Z" style="fill:#010101;"/><path d="M265.21,265.21c1.79-1.8,1.79-4.71,0-6.5-1.8-1.79-4.71-1.79-6.5,0-1.79,1.79-1.79,4.7,0,6.5,1.79,1.8,4.7,1.8,6.5,0,0,0,0,0,0,0Z" style="fill:#010101;"/><path d="M13.79,27.58h9.65c2.2,10.69,11.6,18.37,22.52,18.38h48.26v27.86l-.54-.17c-7.28-2.24-14.99,1.85-17.23,9.12-.4,1.31-.61,2.68-.61,4.05v.57l-16.35-5.03c-24.26-7.46-49.98,6.15-57.45,30.41-7.46,24.26,6.15,49.98,30.41,57.45l109.84,33.75c5.66,1.78,11.83-.32,15.22-5.18,17.45,3.17,34.18-8.4,37.35-25.86,1.14-6.28.39-12.75-2.17-18.6l23.87.16h.03c2.02,0,3.8-1.31,4.39-3.24l4.07-13.17c.75-2.43-.61-5-3.04-5.74h0l-77.25-23.76v-9.04c.02-6.06-3.93-11.42-9.73-13.18l-8.65-2.66v-37.76h48.26c10.92-.01,20.32-7.69,22.52-18.38h9.65c7.61,0,13.79-6.17,13.79-13.79s-6.17-13.79-13.79-13.79H13.79C6.18,0,0,6.17,0,13.79s6.17,13.79,13.79,13.79h0ZM185.2,173.92c-3.2,10.45-13.32,17.19-24.2,16.12l7.01-22.75c2.06-6.6,7.63-11.49,14.43-12.69,3.75,5.71,4.75,12.79,2.75,19.32ZM213.23,145.3l-27.47-.18c-12.16-.04-22.91,7.86-26.53,19.47l-8.5,27.62c-.74,2.41-3.29,3.75-5.7,3.01,0,0-.02,0-.03,0l-109.84-33.76c-19.41-5.97-30.3-26.55-24.33-45.96,5.97-19.41,26.55-30.3,45.96-24.33,77.46,23.83,69.58,21.4,158.14,48.63l-1.7,5.51ZM135.58,99.56v6.2c-5.17-1.59,18.73,5.76-50.55-15.55v-3.39c0-2.54,2.06-4.6,4.59-4.6.46,0,.91.07,1.35.2,88.95,27.39.29.35,41.36,12.73,1.93.59,3.25,2.37,3.24,4.39ZM117.2,80.89l-13.79-4.24v-30.69h13.79v34.93ZM174.65,36.77H45.96c-5.84,0-11.05-3.69-13-9.19h154.68c-1.95,5.5-7.16,9.19-13,9.19h0ZM13.79,9.19h193.03c2.54,0,4.6,2.06,4.6,4.6s-2.06,4.6-4.6,4.6H13.79c-2.54,0-4.6-2.06-4.6-4.6s2.06-4.6,4.6-4.6Z" style="fill:#010101;"/><path d="M40.56,143.88c-4.66-1.42-8.56-4.65-10.82-8.96-1.19-2.24-3.97-3.1-6.21-1.92-2.24,1.19-3.1,3.97-1.92,6.21h0c3.4,6.48,9.26,11.32,16.25,13.45l101.05,31.05c2.43.75,5-.62,5.74-3.04.75-2.43-.62-5-3.04-5.74h0l-101.05-31.05Z" style="fill:#010101;"/></svg>