<?xml version="1.0" encoding="UTF-8"?><svg id="Layer_1" xmlns="http://www.w3.org/2000/svg" viewBox="0 0 237.01 266.56"><path d="M165.33,125.35l-43.66-41.36c-1.77-1.68-4.55-1.68-6.32,0l-43.66,41.36c-1.84,1.75-1.92,4.65-.18,6.5.87.92,2.08,1.44,3.34,1.44h9.19v32.17c0,5.08,4.12,9.19,9.19,9.19h50.55c5.08,0,9.19-4.12,9.19-9.19v-32.17h9.19c2.54,0,4.6-2.06,4.6-4.59,0-1.26-.52-2.47-1.44-3.34ZM118.51,93.65l32.13,30.44h-64.25l32.13-30.44ZM143.78,165.45h-50.55v-32.17h50.55v32.17Z" style="fill:#010101;"/><path d="M225.52,98.03c10.99-6.35,14.75-20.4,8.41-31.39-6.35-10.99-20.4-14.75-31.39-8.41-9.46,5.46-13.76,16.82-10.3,27.18l-10.5,6.06c-13.14-19.87-34.85-32.41-58.63-33.87v-12.1c12.43-2.54,20.46-14.68,17.92-27.11-2.54-12.43-14.68-20.46-27.11-17.92-12.43,2.54-20.46,14.68-17.92,27.11,1.84,9.02,8.89,16.08,17.92,17.92v12.11c-23.78,1.46-45.49,14-58.63,33.87l-10.5-6.06c4.02-12.04-2.48-25.05-14.52-29.07-12.04-4.02-25.05,2.48-29.07,14.52-4.02,12.04,2.48,25.05,14.52,29.07,8.74,2.92,18.37.34,24.48-6.56l10.49,6.06c-10.67,21.31-10.67,46.4,0,67.71l-10.49,6.06c-8.42-9.5-22.94-10.38-32.44-1.96-9.5,8.42-10.38,22.94-1.96,32.44,8.42,9.5,22.94,10.38,32.44,1.96,6.89-6.11,9.48-15.74,6.56-24.48l10.5-6.06c13.14,19.87,34.85,32.41,58.63,33.87v12.1c-12.43,2.54-20.46,14.68-17.92,27.11,2.54,12.43,14.68,20.46,27.11,17.92,12.43-2.54,20.46-14.68,17.92-27.11-1.84-9.02-8.89-16.08-17.92-17.92v-12.1c23.78-1.46,45.49-14,58.63-33.87l10.5,6.06c-4.02,12.04,2.48,25.06,14.52,29.07,12.04,4.02,25.05-2.48,29.07-14.52,4.02-12.04-2.48-25.06-14.52-29.07-8.74-2.92-18.37-.34-24.48,6.56l-10.49-6.06c10.67-21.31,10.67-46.4,0-67.71l10.49-6.06c7.24,8.17,19.24,10.12,28.69,4.66ZM16.09,90.08c-6.65-3.72-9.02-12.12-5.3-18.76,3.72-6.65,12.12-9.02,18.76-5.3.11.06.22.12.33.19,6.66,3.69,9.07,12.08,5.39,18.74-3.69,6.66-12.08,9.07-18.74,5.39-.15-.08-.29-.16-.44-.25h0ZM29.88,200.38c-6.54,3.9-15,1.75-18.9-4.79-3.9-6.54-1.75-15,4.79-18.9.11-.06.22-.13.33-.19,6.62-3.76,15.04-1.45,18.8,5.17,3.73,6.56,1.49,14.89-5.01,18.71h0ZM220.92,176.48c6.59,3.81,8.85,12.25,5.03,18.84-3.81,6.59-12.25,8.85-18.84,5.03-6.59-3.81-8.84-12.24-5.04-18.83,3.8-6.59,12.22-8.85,18.81-5.05.01,0,.02.01.03.02h0ZM104.72,22.98c0-7.61,6.17-13.79,13.79-13.79s13.79,6.17,13.79,13.79-6.17,13.79-13.79,13.79c-7.61,0-13.78-6.18-13.79-13.79ZM132.29,243.58c0,7.61-6.17,13.79-13.79,13.79s-13.79-6.17-13.79-13.79,6.17-13.79,13.79-13.79h0c7.61,0,13.78,6.18,13.79,13.79ZM118.51,199.92c-36.8,0-66.64-29.84-66.64-66.64s29.84-66.64,66.64-66.64,66.64,29.84,66.64,66.64c-.04,36.79-29.85,66.6-66.64,66.64ZM207.13,66.19c6.6-3.8,15.03-1.53,18.83,5.06s1.53,15.03-5.06,18.83c-6.59,3.8-15.02,1.54-18.82-5.05-3.81-6.59-1.56-15.03,5.03-18.84,0,0,.02-.01.03-.02h0Z" style="fill:#010101;"/></svg>